<svg width="318" height="82" viewBox="0 0 318 82" fill="none" xmlns="http://www.w3.org/2000/svg">
<path d="M3.20744 39.406C0.717082 40.5992 -0.334531 43.5852 0.8586 46.0756C2.05173 48.566 5.03779 49.6176 7.52815 48.4244L3.20744 39.406ZM317.889 29.01C318.267 26.2747 316.357 23.7502 313.622 23.3715L269.047 17.1996C266.311 16.8209 263.787 18.7313 263.408 21.4666C263.03 24.2019 264.94 26.7264 267.675 27.1051L307.297 32.5912L301.811 72.2132C301.432 74.9485 303.343 77.473 306.078 77.8517C308.813 78.2305 311.338 76.3201 311.717 73.5847L317.889 29.01ZM260.4 68.0812L257.383 64.0942L260.4 68.0812ZM7.52815 48.4244L66.3848 20.2262L62.0641 11.2078L3.20744 39.406L7.52815 48.4244ZM263.417 72.0682L315.953 32.3113L309.919 24.3372L257.383 64.0942L263.417 72.0682ZM198.607 59.6526C212.254 82.1917 242.406 87.9681 263.417 72.0682L257.383 64.0942C241.101 76.415 217.736 71.9389 207.161 54.4733L198.607 59.6526ZM66.3848 20.2262C114.039 -2.60465 171.239 14.4516 198.607 59.6526L207.161 54.4733C177.129 4.87088 114.358 -13.8462 62.0641 11.2078L66.3848 20.2262Z" fill="black"/>
</svg>
